<svg width="20" height="20" viewBox="0 0 20 20" fill="none" xmlns="http://www.w3.org/2000/svg">
<path d="M4.28564 13.75C4.28564 13.4185 4.43615 13.1005 4.70406 12.8661C4.97197 12.6317 5.33534 12.5 5.71422 12.5C6.0931 12.5 6.45646 12.6317 6.72437 12.8661C6.99228 13.1005 7.14279 13.4185 7.14279 13.75V15C7.14279 15.3315 6.99228 15.6495 6.72437 15.8839C6.45646 16.1183 6.0931 16.25 5.71422 16.25C5.33534 16.25 4.97197 16.1183 4.70406 15.8839C4.43615 15.6495 4.28564 15.3315 4.28564 15V13.75ZM12.8571 8.75C12.8571 8.41848 13.0076 8.10054 13.2755 7.86612C13.5434 7.6317 13.9068 7.5 14.2856 7.5C14.6645 7.5 15.0279 7.6317 15.2958 7.86612C15.5637 8.10054 15.7142 8.41848 15.7142 8.75V15C15.7142 15.3315 15.5637 15.6495 15.2958 15.8839C15.0279 16.1183 14.6645 16.25 14.2856 16.25C13.9068 16.25 13.5434 16.1183 13.2755 15.8839C13.0076 15.6495 12.8571 15.3315 12.8571 15V8.75ZM8.57136 11.25C8.57136 10.9185 8.72187 10.6005 8.98978 10.3661C9.25769 10.1317 9.62105 10 9.99993 10C10.3788 10 10.7422 10.1317 11.0101 10.3661C11.278 10.6005 11.4285 10.9185 11.4285 11.25V15C11.4285 15.3315 11.278 15.6495 11.0101 15.8839C10.7422 16.1183 10.3788 16.25 9.99993 16.25C9.62105 16.25 9.25769 16.1183 8.98978 15.8839C8.72187 15.6495 8.57136 15.3315 8.57136 15V11.25Z" fill="#5856D1"/>
<path d="M4.28571 1.875H2.85714C2.09938 1.875 1.37266 2.13839 0.836838 2.60723C0.30102 3.07607 0 3.71196 0 4.375V17.5C0 18.163 0.30102 18.7989 0.836838 19.2678C1.37266 19.7366 2.09938 20 2.85714 20H17.1429C17.9006 20 18.6273 19.7366 19.1632 19.2678C19.699 18.7989 20 18.163 20 17.5V4.375C20 3.71196 19.699 3.07607 19.1632 2.60723C18.6273 2.13839 17.9006 1.875 17.1429 1.875H15.7143V3.125H17.1429C17.5217 3.125 17.8851 3.2567 18.153 3.49112C18.4209 3.72554 18.5714 4.04348 18.5714 4.375V17.5C18.5714 17.8315 18.4209 18.1495 18.153 18.3839C17.8851 18.6183 17.5217 18.75 17.1429 18.75H2.85714C2.47826 18.75 2.1149 18.6183 1.84699 18.3839C1.57908 18.1495 1.42857 17.8315 1.42857 17.5V4.375C1.42857 4.04348 1.57908 3.72554 1.84699 3.49112C2.1149 3.2567 2.47826 3.125 2.85714 3.125H4.28571V1.875Z" fill="#5856D1"/>
<path d="M12.1429 1.25C12.3324 1.25 12.514 1.31585 12.648 1.43306C12.782 1.55027 12.8572 1.70924 12.8572 1.875V3.125C12.8572 3.29076 12.782 3.44973 12.648 3.56694C12.514 3.68415 12.3324 3.75 12.1429 3.75H7.85721C7.66777 3.75 7.48609 3.68415 7.35214 3.56694C7.21818 3.44973 7.14293 3.29076 7.14293 3.125V1.875C7.14293 1.70924 7.21818 1.55027 7.35214 1.43306C7.48609 1.31585 7.66777 1.25 7.85721 1.25H12.1429ZM7.85721 0C7.28889 0 6.74385 0.197544 6.34198 0.549175C5.94012 0.900805 5.71436 1.37772 5.71436 1.875V3.125C5.71436 3.62228 5.94012 4.09919 6.34198 4.45083C6.74385 4.80246 7.28889 5 7.85721 5H12.1429C12.7112 5 13.2563 4.80246 13.6582 4.45083C14.06 4.09919 14.2858 3.62228 14.2858 3.125V1.875C14.2858 1.37772 14.06 0.900805 13.6582 0.549175C13.2563 0.197544 12.7112 0 12.1429 0L7.85721 0Z" fill="#5856D1"/>
</svg>
