<svg width="20" height="20" viewBox="0 0 20 20" fill="none" xmlns="http://www.w3.org/2000/svg">
<path d="M5 2.5C4.73478 2.5 4.48043 2.56585 4.29289 2.68306C4.10536 2.80027 4 2.95924 4 3.125C4 3.29076 4.10536 3.44973 4.29289 3.56694C4.48043 3.68415 4.73478 3.75 5 3.75H15C15.2652 3.75 15.5196 3.68415 15.7071 3.56694C15.8946 3.44973 16 3.29076 16 3.125C16 2.95924 15.8946 2.80027 15.7071 2.68306C15.5196 2.56585 15.2652 2.5 15 2.5H5ZM4 0C2.93913 0 1.92172 0.263392 1.17157 0.732233C0.421427 1.20107 0 1.83696 0 2.5V17.5C0 18.163 0.421427 18.7989 1.17157 19.2678C1.92172 19.7366 2.93913 20 4 20H16C17.0609 20 18.0783 19.7366 18.8284 19.2678C19.5786 18.7989 20 18.163 20 17.5V2.5C20 1.83696 19.5786 1.20107 18.8284 0.732233C18.0783 0.263392 17.0609 0 16 0H4ZM2 2.5C2 2.16848 2.21071 1.85054 2.58579 1.61612C2.96086 1.3817 3.46957 1.25 4 1.25H16C16.5304 1.25 17.0391 1.3817 17.4142 1.61612C17.7893 1.85054 18 2.16848 18 2.5V17.5C18 17.8315 17.7893 18.1495 17.4142 18.3839C17.0391 18.6183 16.5304 18.75 16 18.75H4C3.46957 18.75 2.96086 18.6183 2.58579 18.3839C2.21071 18.1495 2 17.8315 2 17.5V2.5Z" fill="#5856D1"/>
</svg>
