<svg width="150" height="195" viewBox="0 0 150 195" fill="none" xmlns="http://www.w3.org/2000/svg">
<path d="M97.5 16.25C76.2125 16.25 58.9062 33.5563 58.9062 54.8438C58.9062 75.725 75.2375 92.625 96.525 93.3562C97.175 93.275 97.825 93.275 98.3125 93.3562C98.475 93.3562 98.5562 93.3562 98.7187 93.3562C98.8 93.3562 98.8 93.3562 98.8813 93.3562C119.681 92.625 136.012 75.725 136.094 54.8438C136.094 33.5563 118.787 16.25 97.5 16.25Z" fill="#2F2CC6" fill-opacity="0.05"/>
<path opacity="0.4" d="M138.775 115.05C116.106 99.9377 79.1373 99.9377 56.3061 115.05C45.9873 121.875 40.2998 131.219 40.2998 141.213C40.2998 151.206 45.9873 160.469 56.2248 167.294C67.5998 174.931 82.5498 178.75 97.4998 178.75C112.45 178.75 127.4 174.931 138.775 167.294C149.012 160.388 154.7 151.125 154.7 141.05C154.619 131.138 149.012 121.794 138.775 115.05Z" fill="#2F2CC6" fill-opacity="0.05"/>
<path d="M92.3814 156.488C91.0814 156.488 89.7814 155.919 88.8064 155.025L78.5689 144.788C76.6189 142.838 76.6189 139.588 78.5689 137.638C80.5189 135.688 83.7689 135.688 85.7189 137.638L92.3814 144.3L109.281 127.4C111.231 125.45 114.481 125.45 116.431 127.4C118.381 129.35 118.381 132.6 116.431 134.55L95.9564 155.025C94.9814 156 93.6814 156.488 92.3814 156.488Z" fill="#2F2CC6" fill-opacity="0.05"/>
</svg>
